<svg width="694" height="1050" viewBox="0 0 694 1050" fill="none" xmlns="http://www.w3.org/2000/svg">
<path opacity="0.4" d="M299 300.6C307.5 295.7 313.6 295.6 317.3 300.2C321.1 304.8 322.9 312.6 322.9 323.5V382.5C322.9 393.7 323.9 403 326 410.4C328.1 418.1 331.6 423.5 336.4 426.7C341.1 430 347.5 430.8 355.6 429.3C363.5 427.9 373.4 423.7 385.2 416.9L390.8 413.6V367.1L383.7 371.2C375.2 376.1 369.6 376.7 366.8 373.2C363.8 369.7 362.3 362.5 362.3 351.6V299.6C362.3 286 361 275.3 358.3 267.5C355.7 259.6 350.4 254.6 342.5 252.4C350.4 241.1 355.7 229.9 358.3 219C360.9 208.1 362.2 195.9 362.2 182.3V130.3C362.2 119.4 363.7 110.4 366.7 103.5C369.5 96.6998 375.2 90.7998 383.6 85.8998L390.7 81.7998V35.2998L385.1 38.5998C373.3 45.3998 363.4 52.6998 355.5 60.3998C347.4 68.1998 341 76.3998 336.3 85.1998C331.4 93.9998 327.9 103.4 325.9 113.5C323.8 123.3 322.8 133.8 322.8 145V204C322.8 214.9 320.9 224.9 317.2 233.8C313.4 242.7 307.3 249.7 298.9 254.5L299 300.6Z" fill="url(#paint0_linear)"/>
<path opacity="0.4" d="M513.2 129.7C504.7 134.6 498.6 134.7 494.9 130.1C491.1 125.5 489.3 117.7 489.3 106.8V47.8002C489.3 36.6002 488.3 27.3002 486.2 19.9002C484.1 12.2002 480.7 6.80016 476 3.50016C471.1 0.300156 464.7 -0.499844 456.8 0.900156C448.7 2.40016 438.7 6.60016 426.9 13.5002L421.3 16.8002V63.3002L428.4 59.2002C436.9 54.3002 442.6 53.6002 445.6 57.1002C448.4 60.7002 449.8 67.9002 449.8 78.9002V130.9C449.8 144.5 451.1 155.2 453.8 163C456.4 170.9 461.7 175.9 469.6 178.1C461.7 189.4 456.4 200.6 453.8 211.5C451.2 222.4 449.9 234.6 449.9 248.2V300.2C449.9 311.1 448.5 320 445.7 326.9C442.7 333.8 437 339.8 428.5 344.6L421.4 348.7V395.2L427 391.9C438.8 385.1 448.8 377.7 456.9 370C464.8 362.3 471.2 354.1 476.1 345.2C480.8 336.5 484.2 327.1 486.2 317.1C488.3 307.3 489.3 296.8 489.3 285.6V226.6C489.3 215.7 491.2 205.7 494.9 196.8C498.7 187.9 504.8 180.9 513.2 176.1V129.7Z" fill="url(#paint1_linear)"/>
<path opacity="0.15" d="M270.1 13.0996L59 135V641.1L270.1 519.2V13.0996Z" fill="url(#paint2_linear)"/>
<path d="M309.7 79.4004L141.8 176.3V222.8L309.7 125.9V79.4004Z" fill="#F2C94C"/>
<path opacity="0.2" d="M242.5 294.7L83.2998 386.5V527.2L242.5 435.3V294.7Z" fill="url(#paint3_linear)"/>
<path opacity="0.15" d="M244.1 186.8L82.5 280.1V296L244.1 202.7V186.8Z" fill="white"/>
<path opacity="0.15" d="M244.2 218.8L104.5 299.4V315.3L244.2 234.7V218.8Z" fill="white"/>
<path opacity="0.15" d="M244.2 250.4L125.6 318.8V334.7L244.2 266.3V250.4Z" fill="white"/>
<path opacity="0.2" d="M270.1 13.0996L59 135V202.8L270.1 80.9996V13.0996Z" fill="url(#paint4_linear)"/>
<path opacity="0.2" d="M217.3 77.9004C217.3 88.2005 223.3 93.0004 230.7 88.7004C238.1 84.4004 244.1 72.7005 244.1 62.4005C244.1 52.1005 238.1 47.3004 230.7 51.6004C223.3 55.9004 217.3 67.7005 217.3 77.9004Z" fill="white"/>
<path opacity="0.15" d="M650.5 168.1L0.700195 543.1L0.800195 1049.5L650.6 674.5L650.5 168.1Z" fill="url(#paint5_linear)"/>
<path d="M693.5 292.9L525.6 389.8V436.3L693.5 339.4V292.9Z" fill="#F2994A"/>
<path opacity="0.15" d="M606.6 420.7L233.9 635.9V651.8L606.7 436.6L606.6 420.7Z" fill="white"/>
<path opacity="0.15" d="M606.7 452.7L285 638.4V654.3L606.6 468.7L606.7 452.7Z" fill="white"/>
<path opacity="0.15" d="M606.7 484.4L333 642.4V658.3L606.7 500.3V484.4Z" fill="white"/>
<path opacity="0.2" d="M355 686L27.2002 875.2V1015.9L355 826.7V686Z" fill="url(#paint6_linear)"/>
<path opacity="0.15" d="M330.4 728.1L281 756.6V803.1L330.4 774.6V728.1Z" fill="white"/>
<path opacity="0.15" d="M269.9 765.3L220.5 793.8V840.3L269.9 811.8V765.3Z" fill="white"/>
<path opacity="0.15" d="M209.1 799.8L159.7 828.3V874.8L209.1 846.3V799.8Z" fill="white"/>
<path opacity="0.15" d="M148.2 836.5L98.7998 865V911.5L148.2 883V836.5Z" fill="white"/>
<path opacity="0.2" d="M667.7 500.2L394.8 657.7V798.4L667.7 640.9V500.2Z" fill="url(#paint7_linear)"/>
<path opacity="0.15" d="M640.2 552.1L423.4 677.2V693.1L640.2 568V552.1Z" fill="white"/>
<path opacity="0.15" d="M640.2 584.1L466.5 684.3V700.2L640.1 600L640.2 584.1Z" fill="white"/>
<path opacity="0.2" d="M650.5 168.1L1.5 542.7V611.3L650.4 236.7L650.5 168.1Z" fill="url(#paint8_linear)"/>
<path opacity="0.2" d="M579.8 243.2C579.8 253.5 585.8 258.3 593.2 254C600.6 249.7 606.6 238 606.6 227.7C606.6 217.4 600.6 212.6 593.2 216.9C585.8 221.2 579.8 233 579.8 243.2Z" fill="white"/>
<defs>
<linearGradient id="paint0_linear" x1="241.418" y1="21.2651" x2="405.2" y2="305.192" gradientUnits="userSpaceOnUse">
<stop stop-color="white"/>
<stop offset="0.903" stop-color="white" stop-opacity="0"/>
</linearGradient>
<linearGradient id="paint1_linear" x1="335.972" y1="2.01675" x2="499.773" y2="285.909" gradientUnits="userSpaceOnUse">
<stop stop-color="white"/>
<stop offset="0.903" stop-color="white" stop-opacity="0"/>
</linearGradient>
<linearGradient id="paint2_linear" x1="55.0088" y1="137.299" x2="256.865" y2="487.014" gradientUnits="userSpaceOnUse">
<stop stop-color="white"/>
<stop offset="1" stop-color="white" stop-opacity="0"/>
</linearGradient>
<linearGradient id="paint3_linear" x1="132.495" y1="358.169" x2="188.597" y2="455.364" gradientUnits="userSpaceOnUse">
<stop stop-color="white"/>
<stop offset="1" stop-color="white" stop-opacity="0"/>
</linearGradient>
<linearGradient id="paint4_linear" x1="197.7" y1="14.1511" x2="133.336" y2="196.376" gradientUnits="userSpaceOnUse">
<stop stop-color="white"/>
<stop offset="1" stop-color="white" stop-opacity="0"/>
</linearGradient>
<linearGradient id="paint5_linear" x1="215.994" y1="418.835" x2="322.913" y2="604.116" gradientUnits="userSpaceOnUse">
<stop stop-color="white"/>
<stop offset="1" stop-color="white" stop-opacity="0"/>
</linearGradient>
<linearGradient id="paint6_linear" x1="160.684" y1="798.179" x2="216.786" y2="895.374" gradientUnits="userSpaceOnUse">
<stop stop-color="white"/>
<stop offset="1" stop-color="white" stop-opacity="0"/>
</linearGradient>
<linearGradient id="paint7_linear" x1="500.781" y1="596.485" x2="556.883" y2="693.681" gradientUnits="userSpaceOnUse">
<stop stop-color="white"/>
<stop offset="1" stop-color="white" stop-opacity="0"/>
</linearGradient>
<linearGradient id="paint8_linear" x1="489.472" y1="112.826" x2="243.08" y2="530.202" gradientUnits="userSpaceOnUse">
<stop stop-color="white"/>
<stop offset="1" stop-color="white" stop-opacity="0"/>
</linearGradient>
</defs>
</svg>
