<svg width="707" height="904" viewBox="0 0 707 904" fill="none" xmlns="http://www.w3.org/2000/svg">
<path opacity="0.07" d="M69.6001 431.2C43.6001 408.9 27.6001 367.4 27.6001 311.4C27.6001 196.4 95.0001 64.2001 178 17.2C261.1 -29.9 327.3 25.3 326.5 141.2C326.1 196.3 310.3 255.4 284.8 306.8C265.1 346.4 252.2 390.6 247.9 431.7C246.2 449.3 235.7 467.5 223.6 474.5L130.8 528C118.6 535.1 108.2 528.7 106.3 513.2C102.1 477.1 89.3001 448.3 69.6001 431.2Z" fill="url(#paint0_linear)"/>
<path opacity="0.07" d="M108.1 621.2V596.6C108.1 583.4 115.7 568.5 125.2 562.8L229.4 502.6C238.9 497.1 246.5 503.3 246.5 516.5V541.1C246.5 560.9 236.1 582.9 222.5 593.7L131.9 646C118.4 651.1 108.1 640.8 108.1 621.2Z" fill="url(#paint1_linear)"/>
<path opacity="0.4" d="M119.6 471C93.6001 448.7 77.6001 407.2 77.6001 351.2C77.6001 236.2 145 104 228 56.9999C311.1 9.89985 377.3 65.0998 376.5 181C376.1 236.1 360.3 295.2 334.8 346.6C315.1 386.2 302.2 430.4 297.9 471.5C296.2 489.1 285.7 507.3 273.6 514.3L180.8 567.8C168.6 574.9 158.2 568.5 156.3 553C152.1 516.9 139.3 488 119.6 471Z" fill="url(#paint2_linear)"/>
<path opacity="0.4" d="M158.1 661V636.4C158.1 623.2 165.7 608.3 175.2 602.6L279.4 542.4C288.9 536.9 296.5 543.1 296.5 556.3V580.9C296.5 600.7 286.1 622.7 272.5 633.5L181.9 685.8C168.4 690.9 158.1 680.6 158.1 661Z" fill="url(#paint3_linear)"/>
<path opacity="0.3" d="M377 669.6L674.6 497.8L674.5 652.9L403.1 809.5L376.8 848.4L377 669.6Z" fill="url(#paint4_linear)"/>
<path d="M706.2 558.3V516.2L593.9 581V623.1L706.2 558.3Z" fill="#F2994A"/>
<path opacity="0.15" d="M453.5 663.2L518.7 625.6V639.2L453.5 676.8V663.2Z" fill="white"/>
<path opacity="0.15" d="M453.4 690.5L579.1 618V631.6L453.4 704.1V690.5Z" fill="white"/>
<path opacity="0.15" d="M453.4 717.7L605.7 629.8V643.4L453.4 731.3V717.7Z" fill="white"/>
<path d="M437.4 686.7C437.4 699.5 429.8 714.2 420.5 719.6C411.2 725 403.6 719 403.6 706.2C403.6 693.4 411.2 678.7 420.5 673.3C429.8 667.9 437.4 673.9 437.4 686.7Z" fill="#F2994A"/>
<path opacity="0.3" d="M353.8 576.3L56.2001 748.1L56.1001 903.2L327.4 746.6L353.6 755.2L353.8 576.3Z" fill="url(#paint5_linear)"/>
<path d="M142.8 775.4V733.3L30.5 798.2V840.3L142.8 775.4Z" fill="#F2C94C"/>
<path opacity="0.15" d="M277.3 658.3L212.1 695.9V709.5L277.3 671.9V658.3Z" fill="white"/>
<path opacity="0.15" d="M277.3 685.5L159.6 753.4V767L277.3 699.1V685.5Z" fill="white"/>
<path opacity="0.15" d="M277.2 712.8L125 800.7V814.3L277.3 726.4L277.2 712.8Z" fill="white"/>
<path d="M293.3 663.2C293.3 676 300.9 682 310.2 676.6C319.5 671.2 327.1 656.5 327.1 643.7C327.1 630.9 319.5 624.9 310.2 630.3C300.9 635.7 293.3 650.4 293.3 663.2Z" fill="#F2C94C"/>
<path opacity="0.15" d="M21.7998 563.3L14.2998 579.9L77.4998 594.6L11.7998 686.1L19.2998 694L99.9998 581.6L21.7998 563.3Z" fill="white"/>
<path d="M0.899902 581.9C0.899902 594.8 8.4999 600.9 17.7999 595.6C27.0999 590.2 34.6999 575.4 34.6999 562.4C34.6999 549.5 27.0999 543.4 17.7999 548.7C8.3999 554.1 0.899902 569 0.899902 581.9Z" fill="#F2994A"/>
<path d="M0.899902 696.5C0.899902 709.4 8.4999 715.5 17.7999 710.2C27.0999 704.8 34.6999 690 34.6999 677C34.6999 664.1 27.0999 658 17.7999 663.3C8.3999 668.8 0.899902 683.6 0.899902 696.5Z" fill="#F2994A"/>
<path d="M73 596.1C73 609 80.6 615.1 89.9 609.8C99.2 604.4 106.8 589.6 106.8 576.6C106.8 563.7 99.2 557.6 89.9 562.9C80.6 568.2 73 583.2 73 596.1Z" fill="#F2C94C"/>
<path opacity="0.3" d="M544.4 253.6L376.8 350.3V660.8L544.4 564.1V253.6Z" fill="url(#paint6_linear)"/>
<path opacity="0.15" d="M528 437.9L393.4 515.6V529.2L528 451.6V437.9Z" fill="white"/>
<path opacity="0.15" d="M518.6 469.9L402.9 536.7V550.3L518.6 483.5V469.9Z" fill="white"/>
<path d="M469.7 525.4L586.3 458.1V492.8L469.7 560.1V525.4Z" fill="#F2C94C"/>
<path d="M441.6 375.7C441.6 390.7 450.3 397.8 461 391.6C471.7 385.3 480.4 368.1 480.4 353C480.4 338 471.7 330.9 461 337.1C450.3 343.4 441.6 360.7 441.6 375.7Z" fill="#F2C94C"/>
<path d="M461 403.7C478.3 393.6 492.6 403.1 495.1 424.8C495.5 428.6 492.7 433.6 489.2 435.6L432.8 468.6C429.3 470.6 426.5 469 426.9 464.7C429.4 439.9 443.7 413.8 461 403.7Z" fill="#F2C94C"/>
<path opacity="0.2" d="M298.3 884.6C358.8 806.8 315 778.6 298.3 824.2C281.5 798 237.8 876.6 298.3 884.6Z" fill="url(#paint7_linear)"/>
<defs>
<linearGradient id="paint0_linear" x1="59.6954" y1="146.717" x2="365.739" y2="425.372" gradientUnits="userSpaceOnUse">
<stop stop-color="white"/>
<stop offset="1" stop-color="white" stop-opacity="0"/>
</linearGradient>
<linearGradient id="paint1_linear" x1="-98.6824" y1="320.612" x2="207.362" y2="599.267" gradientUnits="userSpaceOnUse">
<stop stop-color="white"/>
<stop offset="1" stop-color="white" stop-opacity="0"/>
</linearGradient>
<linearGradient id="paint2_linear" x1="109.714" y1="186.497" x2="415.758" y2="465.151" gradientUnits="userSpaceOnUse">
<stop stop-color="white"/>
<stop offset="1" stop-color="white" stop-opacity="0"/>
</linearGradient>
<linearGradient id="paint3_linear" x1="-48.6639" y1="360.393" x2="257.381" y2="639.047" gradientUnits="userSpaceOnUse">
<stop stop-color="white"/>
<stop offset="1" stop-color="white" stop-opacity="0"/>
</linearGradient>
<linearGradient id="paint4_linear" x1="441.853" y1="607.477" x2="595.503" y2="727.781" gradientUnits="userSpaceOnUse">
<stop stop-color="white"/>
<stop offset="1" stop-color="white" stop-opacity="0"/>
</linearGradient>
<linearGradient id="paint5_linear" x1="225.973" y1="581.353" x2="187.504" y2="893.383" gradientUnits="userSpaceOnUse">
<stop stop-color="white"/>
<stop offset="1" stop-color="white" stop-opacity="0"/>
</linearGradient>
<linearGradient id="paint6_linear" x1="358.941" y1="280.967" x2="507.708" y2="538.706" gradientUnits="userSpaceOnUse">
<stop stop-color="white"/>
<stop offset="1" stop-color="white" stop-opacity="0"/>
</linearGradient>
<linearGradient id="paint7_linear" x1="285.489" y1="827.2" x2="330.252" y2="865.87" gradientUnits="userSpaceOnUse">
<stop stop-color="white"/>
<stop offset="1" stop-color="white" stop-opacity="0"/>
</linearGradient>
</defs>
</svg>
